<mxfile host="app.diagrams.net" agent="Mozilla/5.0 (Windows NT 10.0; Win64; x64; rv:135.0) Gecko/20100101 Firefox/135.0" version="26.0.16">
  <diagram name="Страница — 1" id="Wo2Mv73lsf9ndTkjW8-e">
    <mxGraphModel dx="1320" dy="813" grid="1" gridSize="10" guides="1" tooltips="1" connect="1" arrows="1" fold="1" page="1" pageScale="1" pageWidth="827" pageHeight="1169" math="0" shadow="0">
      <root>
        <mxCell id="0" />
        <mxCell id="1" parent="0" />
        <mxCell id="52HlK5zHAAoMISxeL5Kl-3" style="edgeStyle=orthogonalEdgeStyle;rounded=0;orthogonalLoop=1;jettySize=auto;html=1;exitX=0.5;exitY=1;exitDx=0;exitDy=0;entryX=0.5;entryY=0;entryDx=0;entryDy=0;" edge="1" parent="1" source="52HlK5zHAAoMISxeL5Kl-1" target="52HlK5zHAAoMISxeL5Kl-2">
          <mxGeometry relative="1" as="geometry" />
        </mxCell>
        <mxCell id="52HlK5zHAAoMISxeL5Kl-1" value="Дорожное покрытие менялось больше года назад? (Q1)" style="rounded=1;whiteSpace=wrap;html=1;" vertex="1" parent="1">
          <mxGeometry x="360" y="20" width="120" height="60" as="geometry" />
        </mxCell>
        <mxCell id="52HlK5zHAAoMISxeL5Kl-8" style="edgeStyle=orthogonalEdgeStyle;rounded=0;orthogonalLoop=1;jettySize=auto;html=1;exitX=0.5;exitY=1;exitDx=0;exitDy=0;entryX=0.5;entryY=0;entryDx=0;entryDy=0;" edge="1" parent="1" source="52HlK5zHAAoMISxeL5Kl-2" target="52HlK5zHAAoMISxeL5Kl-6">
          <mxGeometry relative="1" as="geometry" />
        </mxCell>
        <mxCell id="52HlK5zHAAoMISxeL5Kl-2" value="Есть бюджет для проведения дорожных работ? (Q2)" style="rounded=1;whiteSpace=wrap;html=1;" vertex="1" parent="1">
          <mxGeometry x="360" y="140" width="120" height="60" as="geometry" />
        </mxCell>
        <mxCell id="52HlK5zHAAoMISxeL5Kl-4" value="Провести ремонт дорожного покрытия" style="rounded=0;whiteSpace=wrap;html=1;" vertex="1" parent="1">
          <mxGeometry x="120" y="260" width="120" height="60" as="geometry" />
        </mxCell>
        <mxCell id="52HlK5zHAAoMISxeL5Kl-5" value="Запросить бюджет" style="rounded=0;whiteSpace=wrap;html=1;" vertex="1" parent="1">
          <mxGeometry x="600" y="260" width="120" height="60" as="geometry" />
        </mxCell>
        <mxCell id="52HlK5zHAAoMISxeL5Kl-13" style="edgeStyle=orthogonalEdgeStyle;rounded=0;orthogonalLoop=1;jettySize=auto;html=1;exitX=0.5;exitY=1;exitDx=0;exitDy=0;entryX=0.5;entryY=0;entryDx=0;entryDy=0;" edge="1" parent="1" source="52HlK5zHAAoMISxeL5Kl-6" target="52HlK5zHAAoMISxeL5Kl-7">
          <mxGeometry relative="1" as="geometry" />
        </mxCell>
        <mxCell id="52HlK5zHAAoMISxeL5Kl-6" value="Пешеходные переходы регулируемы? (Q3)" style="rounded=1;whiteSpace=wrap;html=1;" vertex="1" parent="1">
          <mxGeometry x="360" y="260" width="120" height="60" as="geometry" />
        </mxCell>
        <mxCell id="52HlK5zHAAoMISxeL5Kl-20" style="edgeStyle=orthogonalEdgeStyle;rounded=0;orthogonalLoop=1;jettySize=auto;html=1;exitX=0.5;exitY=1;exitDx=0;exitDy=0;entryX=0.5;entryY=0;entryDx=0;entryDy=0;" edge="1" parent="1" source="52HlK5zHAAoMISxeL5Kl-7" target="52HlK5zHAAoMISxeL5Kl-16">
          <mxGeometry relative="1" as="geometry" />
        </mxCell>
        <mxCell id="52HlK5zHAAoMISxeL5Kl-7" value="Пешеходный поток больше 20 человек в минуту? (Q4)" style="rounded=1;whiteSpace=wrap;html=1;" vertex="1" parent="1">
          <mxGeometry x="360" y="380" width="120" height="60" as="geometry" />
        </mxCell>
        <mxCell id="52HlK5zHAAoMISxeL5Kl-9" value="" style="endArrow=classic;html=1;rounded=0;exitX=0;exitY=1;exitDx=0;exitDy=0;entryX=0.5;entryY=0;entryDx=0;entryDy=0;" edge="1" parent="1" source="52HlK5zHAAoMISxeL5Kl-2" target="52HlK5zHAAoMISxeL5Kl-4">
          <mxGeometry width="50" height="50" relative="1" as="geometry">
            <mxPoint x="280" y="390" as="sourcePoint" />
            <mxPoint x="330" y="340" as="targetPoint" />
          </mxGeometry>
        </mxCell>
        <mxCell id="52HlK5zHAAoMISxeL5Kl-11" value="Q1, Q2" style="edgeLabel;html=1;align=center;verticalAlign=middle;resizable=0;points=[];" vertex="1" connectable="0" parent="52HlK5zHAAoMISxeL5Kl-9">
          <mxGeometry x="-0.08" y="-7" relative="1" as="geometry">
            <mxPoint as="offset" />
          </mxGeometry>
        </mxCell>
        <mxCell id="52HlK5zHAAoMISxeL5Kl-10" value="" style="endArrow=classic;html=1;rounded=0;exitX=1;exitY=1;exitDx=0;exitDy=0;entryX=0.5;entryY=0;entryDx=0;entryDy=0;" edge="1" parent="1" source="52HlK5zHAAoMISxeL5Kl-2" target="52HlK5zHAAoMISxeL5Kl-5">
          <mxGeometry width="50" height="50" relative="1" as="geometry">
            <mxPoint x="310" y="380" as="sourcePoint" />
            <mxPoint x="360" y="330" as="targetPoint" />
          </mxGeometry>
        </mxCell>
        <mxCell id="52HlK5zHAAoMISxeL5Kl-12" value="Q1, !Q2" style="edgeLabel;html=1;align=center;verticalAlign=middle;resizable=0;points=[];" vertex="1" connectable="0" parent="52HlK5zHAAoMISxeL5Kl-10">
          <mxGeometry x="-0.0967" y="2" relative="1" as="geometry">
            <mxPoint y="-5" as="offset" />
          </mxGeometry>
        </mxCell>
        <mxCell id="52HlK5zHAAoMISxeL5Kl-25" style="edgeStyle=orthogonalEdgeStyle;rounded=0;orthogonalLoop=1;jettySize=auto;html=1;exitX=0.5;exitY=1;exitDx=0;exitDy=0;entryX=0.5;entryY=0;entryDx=0;entryDy=0;" edge="1" parent="1" source="52HlK5zHAAoMISxeL5Kl-16" target="52HlK5zHAAoMISxeL5Kl-22">
          <mxGeometry relative="1" as="geometry" />
        </mxCell>
        <mxCell id="52HlK5zHAAoMISxeL5Kl-16" value="Возможно ли проложить развязку? (Q5)" style="rounded=1;whiteSpace=wrap;html=1;" vertex="1" parent="1">
          <mxGeometry x="360" y="500" width="120" height="60" as="geometry" />
        </mxCell>
        <mxCell id="52HlK5zHAAoMISxeL5Kl-17" value="Сделать пешеходные переходы регулируемыми" style="rounded=0;whiteSpace=wrap;html=1;" vertex="1" parent="1">
          <mxGeometry x="600" y="500" width="120" height="60" as="geometry" />
        </mxCell>
        <mxCell id="52HlK5zHAAoMISxeL5Kl-18" value="" style="endArrow=classic;html=1;rounded=0;exitX=1;exitY=1;exitDx=0;exitDy=0;entryX=0.5;entryY=0;entryDx=0;entryDy=0;" edge="1" parent="1" source="52HlK5zHAAoMISxeL5Kl-7" target="52HlK5zHAAoMISxeL5Kl-17">
          <mxGeometry width="50" height="50" relative="1" as="geometry">
            <mxPoint x="160" y="450" as="sourcePoint" />
            <mxPoint x="210" y="400" as="targetPoint" />
          </mxGeometry>
        </mxCell>
        <mxCell id="52HlK5zHAAoMISxeL5Kl-19" value="!Q3, Q4" style="edgeLabel;html=1;align=center;verticalAlign=middle;resizable=0;points=[];" vertex="1" connectable="0" parent="52HlK5zHAAoMISxeL5Kl-18">
          <mxGeometry x="-0.1533" y="6" relative="1" as="geometry">
            <mxPoint as="offset" />
          </mxGeometry>
        </mxCell>
        <mxCell id="52HlK5zHAAoMISxeL5Kl-21" value="Отправить на решение исследователям" style="rounded=0;whiteSpace=wrap;html=1;" vertex="1" parent="1">
          <mxGeometry x="600" y="620" width="120" height="60" as="geometry" />
        </mxCell>
        <mxCell id="52HlK5zHAAoMISxeL5Kl-22" value="Грант на развязку одобрен? (Q6)" style="rounded=1;whiteSpace=wrap;html=1;" vertex="1" parent="1">
          <mxGeometry x="360" y="620" width="120" height="60" as="geometry" />
        </mxCell>
        <mxCell id="52HlK5zHAAoMISxeL5Kl-23" value="" style="endArrow=classic;html=1;rounded=0;exitX=1;exitY=1;exitDx=0;exitDy=0;entryX=0.5;entryY=0;entryDx=0;entryDy=0;" edge="1" parent="1" source="52HlK5zHAAoMISxeL5Kl-16" target="52HlK5zHAAoMISxeL5Kl-21">
          <mxGeometry width="50" height="50" relative="1" as="geometry">
            <mxPoint x="520" y="580" as="sourcePoint" />
            <mxPoint x="570" y="530" as="targetPoint" />
          </mxGeometry>
        </mxCell>
        <mxCell id="52HlK5zHAAoMISxeL5Kl-24" value="!Q5" style="edgeLabel;html=1;align=center;verticalAlign=middle;resizable=0;points=[];" vertex="1" connectable="0" parent="52HlK5zHAAoMISxeL5Kl-23">
          <mxGeometry x="-0.1833" y="5" relative="1" as="geometry">
            <mxPoint as="offset" />
          </mxGeometry>
        </mxCell>
        <mxCell id="52HlK5zHAAoMISxeL5Kl-26" value="Проложить развязку" style="rounded=0;whiteSpace=wrap;html=1;" vertex="1" parent="1">
          <mxGeometry x="120" y="740" width="120" height="60" as="geometry" />
        </mxCell>
        <mxCell id="52HlK5zHAAoMISxeL5Kl-29" value="Доработать проект развязки и попробовать снова" style="rounded=0;whiteSpace=wrap;html=1;" vertex="1" parent="1">
          <mxGeometry x="600" y="740" width="120" height="60" as="geometry" />
        </mxCell>
        <mxCell id="52HlK5zHAAoMISxeL5Kl-30" value="" style="endArrow=classic;html=1;rounded=0;exitX=0;exitY=1;exitDx=0;exitDy=0;entryX=0.5;entryY=0;entryDx=0;entryDy=0;" edge="1" parent="1" source="52HlK5zHAAoMISxeL5Kl-22" target="52HlK5zHAAoMISxeL5Kl-26">
          <mxGeometry width="50" height="50" relative="1" as="geometry">
            <mxPoint x="230" y="640" as="sourcePoint" />
            <mxPoint x="280" y="590" as="targetPoint" />
          </mxGeometry>
        </mxCell>
        <mxCell id="52HlK5zHAAoMISxeL5Kl-31" value="Q6" style="edgeLabel;html=1;align=center;verticalAlign=middle;resizable=0;points=[];" vertex="1" connectable="0" parent="52HlK5zHAAoMISxeL5Kl-30">
          <mxGeometry x="-0.0669" y="-6" relative="1" as="geometry">
            <mxPoint as="offset" />
          </mxGeometry>
        </mxCell>
        <mxCell id="52HlK5zHAAoMISxeL5Kl-32" value="" style="endArrow=classic;html=1;rounded=0;exitX=1;exitY=1;exitDx=0;exitDy=0;entryX=0.5;entryY=0;entryDx=0;entryDy=0;" edge="1" parent="1" source="52HlK5zHAAoMISxeL5Kl-22" target="52HlK5zHAAoMISxeL5Kl-29">
          <mxGeometry width="50" height="50" relative="1" as="geometry">
            <mxPoint x="490" y="750" as="sourcePoint" />
            <mxPoint x="540" y="700" as="targetPoint" />
          </mxGeometry>
        </mxCell>
        <mxCell id="52HlK5zHAAoMISxeL5Kl-33" value="!Q6" style="edgeLabel;html=1;align=center;verticalAlign=middle;resizable=0;points=[];" vertex="1" connectable="0" parent="52HlK5zHAAoMISxeL5Kl-32">
          <mxGeometry x="0.0547" y="9" relative="1" as="geometry">
            <mxPoint x="-18" y="-3" as="offset" />
          </mxGeometry>
        </mxCell>
      </root>
    </mxGraphModel>
  </diagram>
</mxfile>
